<svg t="1588291168043" class="icon" viewBox="0 0 1024 1024" version="1.1" xmlns="http://www.w3.org/2000/svg" p-id="5159" width="200" height="200"><path d="M454.656 849.92C231.424 849.92 51.2 668.672 51.2 445.44 51.2 223.232 231.424 41.984 454.656 41.984c222.208 0 403.456 181.248 403.456 403.456C858.112 668.672 676.864 849.92 454.656 849.92z m0-746.496C266.24 103.424 112.64 257.024 112.64 445.44s153.6 342.016 342.016 342.016 342.016-153.6 342.016-342.016-153.6-342.016-342.016-342.016z" fill="#4C4C4C" p-id="5160"></path><path d="M942.08 1008.64c-12.288 0-23.552-4.096-32.768-13.312L737.28 822.272c-18.432-18.432-18.432-47.104 0-65.536s47.104-18.432 65.536 0l172.032 172.032c18.432 18.432 18.432 47.104 0 65.536-9.216 9.216-20.48 14.336-32.768 14.336z" fill="#FFA028" p-id="5161"></path></svg>