<svg t="1588291327934" class="icon" viewBox="0 0 1024 1024" version="1.1" xmlns="http://www.w3.org/2000/svg" p-id="5471" width="200" height="200"><path d="M476.45696 416.18944a10.752 10.752 0 0 0-14.91456 9.16992 92.06784 92.06784 0 0 1-43.17696 78.28992c-54.58944 36.52608-84.7616 85.70368-90.77248 136.0896-20.31104 170.26048 184.03328 191.70816 185.64608 191.488 8.36096-1.14176 273.3056-47.15008 142.99136-312.75008-3.69152-7.5264-17.1776-0.41984-17.408 7.84896a164.864 164.864 0 0 1-13.88032 45.4144c-10.752 19.69152-35.50208 22.34368-36.03968-6.6816-0.88064-47.93856-21.43744-113.55136-112.44544-148.86912z" fill="#F4CA1C" p-id="5472"></path><path d="M525.27104 967.68c-13.5936 0-183.47008-4.83328-297.04192-116.49536-77.09184-75.8016-107.52-180.096-90.49088-309.98016 15.52384-118.272 81.2032-224.55808 184.94464-299.27424a157.5936 157.5936 0 0 0 67.70176-132.1984 53.63712 53.63712 0 0 1 74.2912-49.28512c198.9888 83.13856 231.24992 244.13696 232.77056 332.71296 0.04096 2.44736 0.18944 4.52608 0.39424 6.28736a36.864 36.864 0 0 0 4.66432-7.168c8.5248-16.80384 22.3232-66.28352 22.62528-78.12608 0.71168-27.93472 24.10496-49.31584 46.3104-53.84704a44.27264 44.27264 0 0 1 50.1248 24.91392c87.3984 191.19104 97.88928 350.26432 31.17056 472.79104-92.9792 170.79808-302.96576 206.17728-326.6048 209.66912h-0.86016zM456.13568 129.4336A223.2832 223.2832 0 0 1 361.6256 295.89504C272.93184 359.77216 216.87296 449.96096 203.776 549.85728c-13.09696 99.7888 6.30272 180.37248 57.6512 239.52896 86.3232 99.44576 239.11936 111.01184 257.7408 112.03072 24.99072-4.16256 200.3456-37.888 275.0976-175.18592 50.51904-92.78464 46.55104-214.62016-11.67872-362.7008a362.54208 362.54208 0 0 1-20.65408 58.82368c-17.92 35.36896-50.89792 54.33344-82.06336 47.1808-11.22816-2.56-47.95392-15.62624-48.97792-75.22816-1.47456-85.02784-33.49504-198.4256-174.75584-264.87296z m243.83488 278.3232zM439.00416 121.856h0.03072-0.04096z" fill="#595BB3" p-id="5473"></path></svg>