<svg t="1588296852578" class="icon" viewBox="0 0 1024 1024" version="1.1" xmlns="http://www.w3.org/2000/svg" p-id="11021" width="200" height="200"><path d="M511 960c-60.5 0-119.1-11.8-174.4-35.2-53.4-22.6-101.3-54.9-142.4-96-41.1-41.1-73.4-89-96-142.4C74.8 631.1 63 572.5 63 512s11.8-119.1 35.2-174.4c22.6-53.4 54.9-101.3 96-142.4 41.1-41.1 89-73.4 142.4-96C391.9 75.8 450.5 64 511 64s119.1 11.8 174.4 35.2c53.4 22.6 101.3 54.9 142.4 96 41.1 41.1 73.4 89 96 142.4C947.2 392.9 959 451.5 959 512s-11.8 119.1-35.2 174.4c-22.6 53.4-54.9 101.3-96 142.4-41.1 41.1-89 73.4-142.4 96C630.1 948.2 571.5 960 511 960z m0-832c-211.7 0-384 172.3-384 384s172.3 384 384 384 384-172.3 384-384-172.3-384-384-384z" fill="#1afa29" p-id="11022"></path><path d="M473 704h-0.2c-8.8-0.1-17.2-3.7-23.2-10.1l-170-181.8c-12.1-12.9-11.4-33.2 1.5-45.2 12.9-12.1 33.2-11.4 45.2 1.5l147 157.1 222.6-231.7c12.2-12.7 32.5-13.1 45.2-0.9 12.7 12.2 13.1 32.5 0.9 45.2l-246 256c-5.9 6.4-14.3 9.9-23 9.9z" fill="#1afa29" p-id="11023"></path></svg>