<svg t="1588293944132" class="icon" viewBox="0 0 1024 1024" version="1.1" xmlns="http://www.w3.org/2000/svg" p-id="7004" width="200" height="200"><path d="M806.4 554.666667c-10.666667-2.133333-21.333333 6.4-23.466667 19.2-8.533333 72.533333-44.8 136.533333-102.4 181.333333-57.6 44.8-128 64-198.4 55.466667-119.466667-17.066667-211.2-106.666667-232.533333-219.733334l76.8 49.066667c10.666667 6.4 23.466667 4.266667 29.866667-6.4 6.4-10.666667 4.266667-23.466667-6.4-29.866667l-132.266667-85.333333-85.333333 134.4c-6.4 10.666667-4.266667 23.466667 6.4 29.866667 4.266667 2.133333 8.533333 4.266667 10.666666 4.266666 6.4 0 14.933333-4.266667 17.066667-10.666666l42.666667-66.133334c27.733333 128 134.4 226.133333 266.666666 241.066667 12.8 2.133333 25.6 2.133333 38.4 2.133333 68.266667 0 134.4-23.466667 189.866667-66.133333 66.133333-51.2 108.8-125.866667 119.466667-211.2 2.133333-10.666667-6.4-21.333333-17.066667-21.333333zM885.333333 341.333333c-10.666667-6.4-23.466667-4.266667-29.866666 6.4l-42.666667 66.133334c-27.733333-128-134.4-226.133333-266.666667-241.066667-83.2-10.666667-164.266667 12.8-230.4 64-66.133333 51.2-108.8 125.866667-119.466666 211.2-2.133333 10.666667 6.4 21.333333 19.2 23.466667 12.8 2.133333 21.333333-6.4 23.466666-19.2 8.533333-72.533333 44.8-136.533333 102.4-181.333334 57.6-44.8 128-64 198.4-55.466666 121.6 14.933333 213.333333 104.533333 234.666667 217.6L697.6 384c-10.666667-6.4-23.466667-4.266667-29.866667 6.4-6.4 10.666667-4.266667 23.466667 6.4 29.866667l132.266667 85.333333 85.333333-134.4c6.4-10.666667 4.266667-23.466667-6.4-29.866667z" fill="#4BB9A9" p-id="7005"></path></svg>