<svg t="1588293036149" class="icon" viewBox="0 0 1024 1024" version="1.1" xmlns="http://www.w3.org/2000/svg" p-id="6254" width="200" height="200"><path d="M511.875 889.94c-9.024 0-17.533-4.51-22.771-12.062-2.231-3.173-9.732-11.984-17.669-21.304-63.08-74.118-230.608-270.955-230.608-454.877 0-149.526 121.647-271.174 271.173-271.174s271.173 121.648 271.173 271.174c0 181.259-167.179 379.432-230.109 454.04-9.7 11.51-16.108 19.145-18.106 22.032l-1.383 2.013-1.711 1.716c-5.451 5.44-12.556 8.442-19.989 8.442zM512 183.457c-120.337 0-218.24 97.903-218.24 218.24 0 108.836 71.835 248.568 213.507 415.316l4.629 5.446 4.603-5.467c52.866-62.748 213.746-253.707 213.746-415.295 0-120.337-97.903-218.24-218.245-218.24z" fill="#2C2C2C" p-id="6255"></path><path d="M512 511.834c-60.73 0-110.137-49.407-110.137-110.137S451.27 291.555 512 291.555s110.137 49.412 110.137 110.142S572.73 511.834 512 511.834z m0-167.346c-31.54 0-57.204 25.663-57.204 57.209 0 31.54 25.663 57.203 57.204 57.203s57.209-25.663 57.209-57.203c0-31.546-25.668-57.21-57.209-57.21z" fill="#2C2C2C" p-id="6256"></path></svg>